<svg width="550" height="74" viewBox="0 0 550 74" fill="none" xmlns="http://www.w3.org/2000/svg">
<path d="M74.28 2.16L57.28 60H49.08L37.4 19L25.56 60H17.56L0.68 2.16H10.28L22 43.92L33.76 2.16H41.04L52.88 43.92L64.64 2.16H74.28ZM94.7131 18.64V60H85.3531V18.64H94.7131ZM94.8331 2.2V11.4H85.1931V2.2H94.8331ZM121.981 60.6C119.314 60.6 117.181 60.2667 115.581 59.6C113.981 58.9333 112.781 58.04 111.981 56.92C111.181 55.8 110.661 54.5467 110.421 53.16C110.181 51.7467 110.061 50.3067 110.061 48.84V0.559998H119.581V47.72C119.581 49.5067 119.941 50.8933 120.661 51.88C121.407 52.8667 122.607 53.44 124.261 53.6L126.341 53.68V59.8C125.621 60.0133 124.887 60.2 124.141 60.36C123.394 60.52 122.674 60.6 121.981 60.6ZM149.009 60.6C146.342 60.6 144.209 60.2667 142.609 59.6C141.009 58.9333 139.809 58.04 139.009 56.92C138.209 55.8 137.689 54.5467 137.449 53.16C137.209 51.7467 137.089 50.3067 137.089 48.84V0.559998H146.609V47.72C146.609 49.5067 146.969 50.8933 147.689 51.88C148.435 52.8667 149.635 53.44 151.289 53.6L153.369 53.68V59.8C152.649 60.0133 151.915 60.2 151.169 60.36C150.422 60.52 149.702 60.6 149.009 60.6ZM175.094 18.64V60H165.734V18.64H175.094ZM175.214 2.2V11.4H165.574V2.2H175.214ZM201.771 60.8C199.131 60.8 196.758 60.32 194.651 59.36C192.571 58.3733 190.931 56.9733 189.731 55.16C188.558 53.32 187.971 51.0933 187.971 48.48C187.971 43.92 189.611 40.48 192.891 38.16C196.198 35.84 201.465 34.6267 208.691 34.52L214.851 34.36V31.56C214.851 29.3733 214.198 27.6667 212.891 26.44C211.611 25.1867 209.611 24.5733 206.891 24.6C204.891 24.6267 203.051 25.1067 201.371 26.04C199.718 26.9467 198.625 28.48 198.091 30.64H189.811C189.971 27.8133 190.785 25.4533 192.251 23.56C193.745 21.64 195.785 20.2133 198.371 19.28C200.958 18.32 203.945 17.84 207.331 17.84C211.278 17.84 214.491 18.36 216.971 19.4C219.451 20.44 221.278 21.9467 222.451 23.92C223.625 25.8667 224.211 28.2267 224.211 31V60H216.011L215.251 52.56C213.758 55.68 211.865 57.84 209.571 59.04C207.305 60.2133 204.705 60.8 201.771 60.8ZM204.931 54.2C206.131 54.2 207.318 53.9867 208.491 53.56C209.665 53.1067 210.731 52.5067 211.691 51.76C212.651 50.9867 213.411 50.1333 213.971 49.2C214.558 48.2667 214.851 47.2933 214.851 46.28V39.76L209.771 39.84C207.265 39.8667 205.078 40.1333 203.211 40.64C201.345 41.1467 199.878 41.96 198.811 43.08C197.771 44.1733 197.251 45.64 197.251 47.48C197.251 49.5867 197.985 51.24 199.451 52.44C200.918 53.6133 202.745 54.2 204.931 54.2ZM238.798 60V18.64H248.318V24.56C248.958 23.4933 249.825 22.4667 250.918 21.48C252.038 20.4933 253.411 19.6933 255.038 19.08C256.665 18.4667 258.571 18.16 260.758 18.16C263.318 18.16 265.691 18.6667 267.878 19.68C270.091 20.6933 271.865 22.28 273.198 24.44C274.558 26.6 275.238 29.3867 275.238 32.8V60H265.478V33.96C265.478 31.24 264.731 29.2267 263.238 27.92C261.745 26.5867 259.865 25.92 257.598 25.92C256.051 25.92 254.585 26.1867 253.198 26.72C251.811 27.2267 250.678 28.0133 249.798 29.08C248.945 30.12 248.518 31.4267 248.518 33V60H238.798ZM352.866 60.8C350.066 60.8 347.332 60.4533 344.666 59.76C341.999 59.04 339.572 57.9867 337.386 56.6C335.226 55.1867 333.426 53.44 331.986 51.36C330.546 49.2533 329.666 46.8 329.346 44H339.426C339.852 45.9467 340.692 47.5867 341.946 48.92C343.199 50.2533 344.759 51.2667 346.626 51.96C348.519 52.6533 350.586 53 352.826 53C355.226 53 357.386 52.68 359.306 52.04C361.252 51.4 362.786 50.4667 363.906 49.24C365.052 48.0133 365.626 46.5067 365.626 44.72C365.626 43.1467 365.212 41.8133 364.386 40.72C363.559 39.6267 362.399 38.7333 360.906 38.04C359.439 37.32 357.719 36.7467 355.746 36.32L345.106 34C340.812 33.12 337.412 31.4133 334.906 28.88C332.399 26.3467 331.119 22.9733 331.066 18.76C331.039 15.2667 331.959 12.2267 333.826 9.64C335.719 7.02666 338.292 5.01333 341.546 3.6C344.799 2.16 348.479 1.44 352.586 1.44C357.386 1.44 361.426 2.22666 364.706 3.8C368.012 5.34666 370.506 7.42666 372.186 10.04C373.892 12.6533 374.759 15.52 374.786 18.64H364.946C364.706 16.3467 364.012 14.52 362.866 13.16C361.746 11.8 360.306 10.8267 358.546 10.24C356.786 9.65333 354.839 9.36 352.706 9.36C351.106 9.36 349.612 9.54666 348.226 9.92C346.839 10.2933 345.626 10.84 344.586 11.56C343.546 12.28 342.732 13.16 342.146 14.2C341.586 15.2133 341.306 16.3733 341.306 17.68C341.306 19.5467 341.919 21.0667 343.146 22.24C344.399 23.3867 346.732 24.36 350.146 25.16L360.546 27.48C363.772 28.12 366.372 29.08 368.346 30.36C370.319 31.64 371.826 33.1067 372.866 34.76C373.906 36.3867 374.599 38.0533 374.946 39.76C375.292 41.4667 375.466 43.0933 375.466 44.64C375.466 47.6533 374.532 50.3867 372.666 52.84C370.826 55.2933 368.212 57.24 364.826 58.68C361.466 60.0933 357.479 60.8 352.866 60.8ZM399.881 60.8C397.241 60.8 394.867 60.32 392.761 59.36C390.681 58.3733 389.041 56.9733 387.841 55.16C386.667 53.32 386.081 51.0933 386.081 48.48C386.081 43.92 387.721 40.48 391.001 38.16C394.307 35.84 399.574 34.6267 406.801 34.52L412.961 34.36V31.56C412.961 29.3733 412.307 27.6667 411.001 26.44C409.721 25.1867 407.721 24.5733 405.001 24.6C403.001 24.6267 401.161 25.1067 399.481 26.04C397.827 26.9467 396.734 28.48 396.201 30.64H387.921C388.081 27.8133 388.894 25.4533 390.361 23.56C391.854 21.64 393.894 20.2133 396.481 19.28C399.067 18.32 402.054 17.84 405.441 17.84C409.387 17.84 412.601 18.36 415.081 19.4C417.561 20.44 419.387 21.9467 420.561 23.92C421.734 25.8667 422.321 28.2267 422.321 31V60H414.121L413.361 52.56C411.867 55.68 409.974 57.84 407.681 59.04C405.414 60.2133 402.814 60.8 399.881 60.8ZM403.041 54.2C404.241 54.2 405.427 53.9867 406.601 53.56C407.774 53.1067 408.841 52.5067 409.801 51.76C410.761 50.9867 411.521 50.1333 412.081 49.2C412.667 48.2667 412.961 47.2933 412.961 46.28V39.76L407.881 39.84C405.374 39.8667 403.187 40.1333 401.321 40.64C399.454 41.1467 397.987 41.96 396.921 43.08C395.881 44.1733 395.361 45.64 395.361 47.48C395.361 49.5867 396.094 51.24 397.561 52.44C399.027 53.6133 400.854 54.2 403.041 54.2ZM436.908 60V18.64H446.428V24.56C447.068 23.4933 447.934 22.4667 449.028 21.48C450.148 20.4933 451.521 19.6933 453.148 19.08C454.774 18.4667 456.681 18.16 458.868 18.16C461.428 18.16 463.801 18.6667 465.988 19.68C468.201 20.6933 469.974 22.28 471.308 24.44C472.668 26.6 473.348 29.3867 473.348 32.8V60H463.588V33.96C463.588 31.24 462.841 29.2267 461.348 27.92C459.854 26.5867 457.974 25.92 455.708 25.92C454.161 25.92 452.694 26.1867 451.308 26.72C449.921 27.2267 448.788 28.0133 447.908 29.08C447.054 30.12 446.628 31.4267 446.628 33V60H436.908ZM505.342 73.68C498.382 73.68 493.036 72.7467 489.302 70.88C485.569 69.0133 483.702 66.4533 483.702 63.2C483.702 61.7333 484.062 60.5067 484.782 59.52C485.502 58.5333 486.356 57.72 487.342 57.08C488.329 56.44 489.236 55.9467 490.062 55.6C490.889 55.2533 491.422 55 491.662 54.84C491.209 54.5733 490.609 54.2267 489.862 53.8C489.116 53.3733 488.436 52.7867 487.822 52.04C487.236 51.2933 486.942 50.32 486.942 49.12C486.942 47.7333 487.596 46.4533 488.902 45.28C490.236 44.1067 492.222 43.2667 494.862 42.76C492.276 41.5067 490.289 39.8133 488.902 37.68C487.516 35.5467 486.822 33.3333 486.822 31.04C486.822 28.32 487.609 25.9867 489.182 24.04C490.782 22.0933 492.996 20.6 495.822 19.56C498.676 18.52 501.969 18 505.702 18C508.476 18 510.769 18.3067 512.582 18.92C514.396 19.5333 516.089 20.36 517.662 21.4C518.196 21.1867 518.942 20.8933 519.902 20.52C520.889 20.12 521.956 19.6933 523.102 19.24C524.249 18.76 525.342 18.3067 526.382 17.88C527.449 17.4267 528.356 17.0533 529.102 16.76L529.022 24.8L521.862 26.08C522.209 26.8533 522.476 27.6933 522.662 28.6C522.876 29.5067 522.982 30.3067 522.982 31C522.982 33.4 522.302 35.6267 520.942 37.68C519.609 39.7067 517.596 41.3333 514.902 42.56C512.236 43.7867 508.902 44.4 504.902 44.4C504.502 44.4 503.956 44.3867 503.262 44.36C502.569 44.3333 502.009 44.3067 501.582 44.28C499.422 44.36 497.942 44.6133 497.142 45.04C496.342 45.4667 495.942 45.9333 495.942 46.44C495.942 47.16 496.542 47.64 497.742 47.88C498.942 48.12 500.862 48.3333 503.502 48.52C504.436 48.5733 505.662 48.64 507.182 48.72C508.702 48.8 510.396 48.9067 512.262 49.04C516.982 49.3333 520.556 50.52 522.982 52.6C525.409 54.6533 526.622 57.32 526.622 60.6C526.622 64.4133 524.862 67.5467 521.342 70C517.822 72.4533 512.489 73.68 505.342 73.68ZM506.982 67.96C510.476 67.96 513.062 67.48 514.742 66.52C516.422 65.56 517.262 64.1467 517.262 62.28C517.262 60.84 516.689 59.6667 515.542 58.76C514.396 57.8533 512.689 57.32 510.422 57.16L499.982 56.52C498.836 56.44 497.742 56.6533 496.702 57.16C495.689 57.64 494.862 58.32 494.222 59.2C493.582 60.0533 493.262 61 493.262 62.04C493.262 63.9867 494.382 65.4533 496.622 66.44C498.862 67.4533 502.316 67.96 506.982 67.96ZM505.222 38.68C507.756 38.68 509.809 38.04 511.382 36.76C512.956 35.4533 513.742 33.6133 513.742 31.24C513.742 28.7867 512.956 26.88 511.382 25.52C509.809 24.1333 507.756 23.44 505.222 23.44C502.636 23.44 500.542 24.1333 498.942 25.52C497.369 26.9067 496.582 28.8133 496.582 31.24C496.582 33.5333 497.342 35.3467 498.862 36.68C500.382 38.0133 502.502 38.68 505.222 38.68ZM538.744 60V48.8H549.744V60H538.744Z" fill="url(#paint0_linear_13_5)"/>
<defs>
<linearGradient id="paint0_linear_13_5" x1="318" y1="-37" x2="318" y2="141" gradientUnits="userSpaceOnUse">
<stop offset="0.162921" stop-color="#29B5C8"/>
<stop offset="0.623596" stop-color="#5DEC74"/>
<stop offset="0.929204" stop-color="#9FE2D6"/>
</linearGradient>
</defs>
</svg>
